<?xml version="1.0" encoding="UTF-8" standalone="no"?>
<!DOCTYPE svg PUBLIC "-//W3C//DTD SVG 20010904//EN"
              "http://www.w3.org/TR/2001/REC-SVG-20010904/DTD/svg10.dtd">

<svg xmlns="http://www.w3.org/2000/svg"
     width="919" height="763"
     viewBox="0 0 942 780">
  <linearGradient id="fill" gradientUnits="userSpaceOnUse"
   x1="0%" y1="0%" x2="100%" y2="0%" gradientTransform="rotate(65)">
    <stop offset="0%" stop-color="#ff2f96"/>
    <stop offset="100%" stop-color="#ff8f5a"/>
  </linearGradient>
  <path id="ellipse"
        fill="url(#fill)"
        d="M 311.50,767.75
           C 265.00,761.00 266.75,762.75 219.25,752.75
             161.50,735.50 163.75,735.00 112.75,712.75
             70.00,687.00 71.25,688.25 40.25,655.00
             16.75,619.50 17.25,610.00 12.25,572.00
             14.25,533.50 16.25,528.75 28.50,489.50
             43.25,451.50 53.50,426.00 75.00,391.00
             96.50,356.00 122.00,319.50 144.75,289.75
             167.50,260.00 196.50,223.50 196.50,223.50
             196.50,223.50 240.00,175.50 291.00,130.00
             342.00,84.50 390.75,60.25 395.25,59.00
             399.75,57.75 429.75,42.25 465.25,30.75
             504.25,19.75 500.25,21.00 538.25,15.00
             581.75,12.25 625.00,18.00 625.00,18.00
             625.00,18.00 659.50,26.00 689.00,36.25
             734.00,58.50 741.50,63.25 769.00,83.50
             797.75,108.25 798.50,108.25 827.50,141.00
             845.50,162.25 848.50,165.75 867.00,193.50
             883.75,221.25 878.75,214.00 894.25,242.75
             904.50,264.75 907.25,271.25 914.75,292.25
             920.75,315.75 925.00,334.50 928.00,360.25
             930.50,379.25 930.50,379.75 931.00,398.75
             931.00,415.25 930.10,414.03 928.50,433.25
             926.75,450.75 922.25,474.25 922.25,474.25
             922.25,474.25 918.00,492.00 911.75,509.25
             903.25,528.00 903.00,531.50 891.75,553.00
             879.75,574.00 865.50,597.75 835.25,633.25
             799.50,667.25 757.25,702.75 720.00,719.75
             663.75,743.50 649.00,753.75 578.50,765.00
             506.50,773.25 520.25,775.25 394.25,774.75
             335.25,770.75 351.00,772.75 311.50,767.75 Z" />
</svg>
