<?xml version="1.0" encoding="UTF-8" standalone="no"?>
<!DOCTYPE svg PUBLIC "-//W3C//DTD SVG 20010904//EN"
              "http://www.w3.org/TR/2001/REC-SVG-20010904/DTD/svg10.dtd">

<svg xmlns="http://www.w3.org/2000/svg"
     width="45.8554mm" height="27.5132mm"
     viewBox="0 0 130 78">
  <path id="vk"
        fill="#8993ad"
        d="M 125.57,6.40
           C 126.46,3.43 125.57,1.25 121.34,1.25
             121.34,1.25 107.34,1.25 107.34,1.25
             103.78,1.25 102.14,3.13 101.25,5.21
             101.25,5.21 94.13,22.56 84.05,33.84
             80.78,37.10 79.30,38.14 77.52,38.14
             76.63,38.14 75.34,37.10 75.34,34.13
             75.34,34.13 75.34,6.40 75.34,6.40
             75.34,2.84 74.31,1.25 71.34,1.25
             71.34,1.25 49.34,1.25 49.34,1.25
             47.12,1.25 45.78,2.90 45.78,4.47
             45.78,7.84 50.82,8.62 51.34,18.11
             51.34,18.11 51.34,38.73 51.34,38.73
             51.34,43.25 50.52,44.07 48.74,44.07
             44.00,44.07 32.45,26.64 25.61,6.69
             24.27,2.82 22.92,1.25 19.34,1.25
             19.34,1.25 5.34,1.25 5.34,1.25
             1.34,1.25 0.54,3.13 0.54,5.21
             0.54,8.92 5.29,27.31 22.64,51.63
             34.21,68.25 50.51,77.25 65.34,77.25
             74.24,77.25 75.34,75.25 75.34,71.80
             75.34,71.80 75.34,59.25 75.34,59.25
             75.34,55.25 74.50,54.45 79.00,54.45
             81.08,54.45 84.64,55.49 92.94,63.50
             102.44,72.99 104.00,77.25 109.34,77.25
             109.34,77.25 123.34,77.25 123.34,77.25
             127.34,77.25 129.34,75.25 128.19,71.30
             126.92,67.37 122.39,61.66 116.38,54.90
             113.12,51.04 108.22,46.89 106.74,44.81
             104.66,42.14 105.25,40.95 106.74,38.58
             106.74,38.58 123.80,14.55 125.57,6.40
             125.57,6.40 125.57,6.40 125.57,6.40 Z" />
</svg>
