<?xml version="1.0" encoding="UTF-8" standalone="no"?>
<!DOCTYPE svg PUBLIC "-//W3C//DTD SVG 20010904//EN"
              "http://www.w3.org/TR/2001/REC-SVG-20010904/DTD/svg10.dtd">

<svg xmlns="http://www.w3.org/2000/svg"
     width="113.375mm" height="113.375mm"
     viewBox="0 0 512 512">
  <linearGradient id="fill" gradientUnits="userSpaceOnUse"
   x1="0%" y1="0%" x2="100%" y2="0%" gradientTransform="rotate(65)">
    <stop offset="0%" stop-color="#ff2f96"/>
    <stop offset="100%" stop-color="#ff8f5a"/>
  </linearGradient>
  <path id="close"
        fill="url(#fill)"
        d="M 0.55,76.55
           C 0.55,76.55 77.04,0.09 77.04,0.09
             77.04,0.09 256.12,179.00 256.12,179.00
             256.12,179.00 434.99,0.01 434.99,0.01
             434.99,0.01 511.99,77.01 511.99,77.01
             511.99,77.01 333.01,256.02 333.01,256.02
             333.01,256.02 512.00,434.96 512.00,434.96
             512.00,434.96 435.12,511.94 435.12,511.94
             435.12,511.94 256.08,333.02 256.08,333.02
             256.08,333.02 76.87,511.96 76.87,511.96
             76.87,511.96 0.02,435.02 0.02,435.02
             0.02,435.02 179.00,255.94 179.00,255.94
             179.00,255.94 0.55,76.55 0.55,76.55 Z" />
</svg>
