<?xml version="1.0" encoding="UTF-8" standalone="no"?>
<!DOCTYPE svg PUBLIC "-//W3C//DTD SVG 20010904//EN"
              "http://www.w3.org/TR/2001/REC-SVG-20010904/DTD/svg10.dtd">

<svg xmlns="http://www.w3.org/2000/svg"
     width="55.7319mm" height="109.347mm"
     viewBox="0 0 158 310">
  <path id="XMLID_835_"
        fill="#8993ad"
        d="M 5.70,165.11
           C 5.70,165.11 39.68,165.11 39.68,165.11
             39.68,165.11 39.68,305.00 39.68,305.00
             39.68,307.76 41.92,310.00 44.68,310.00
             44.68,310.00 102.30,310.00 102.30,310.00
             105.06,310.00 107.30,307.76 107.30,305.00
             107.30,305.00 107.30,165.76 107.30,165.76
             107.30,165.76 146.36,165.76 146.36,165.76
             148.90,165.76 151.04,163.86 151.33,161.34
             151.33,161.34 157.26,109.83 157.26,109.83
             157.43,108.42 156.98,107.00 156.03,105.93
             155.08,104.87 153.72,104.26 152.30,104.26
             152.30,104.26 107.30,104.26 107.30,104.26
             107.30,104.26 107.30,71.98 107.30,71.98
             107.30,62.25 112.54,57.31 122.88,57.31
             124.35,57.31 152.30,57.31 152.30,57.31
             155.06,57.31 157.30,55.07 157.30,52.31
             157.30,52.31 157.30,5.04 157.30,5.04
             157.30,2.27 155.06,0.04 152.30,0.04
             152.30,0.04 111.75,0.04 111.75,0.04
             111.47,0.02 110.83,0.00 109.90,0.00
             102.86,0.00 78.41,1.38 59.09,19.15
             37.69,38.84 40.67,62.42 41.38,66.51
             41.38,66.51 41.38,104.26 41.38,104.26
             41.38,104.26 5.70,104.26 5.70,104.26
             2.94,104.26 0.70,106.50 0.70,109.26
             0.70,109.26 0.70,160.10 0.70,160.10
             0.70,162.87 2.94,165.11 5.70,165.11 Z" />
</svg>
