<?xml version="1.0" encoding="UTF-8" standalone="no"?>
<!DOCTYPE svg PUBLIC "-//W3C//DTD SVG 20010904//EN"
              "http://www.w3.org/TR/2001/REC-SVG-20010904/DTD/svg10.dtd">

<svg xmlns="http://www.w3.org/2000/svg"
     width="30px" height="30px"
     viewBox="0 0 28 29">
  <linearGradient id="fill" gradientUnits="userSpaceOnUse"
   x1="0%" y1="0%" x2="100%" y2="0%" gradientTransform="rotate(65)">
    <stop offset="0%" stop-color="#ff2f96"/>
    <stop offset="100%" stop-color="#ff8f5a"/>
  </linearGradient>
  <path id="phone"
        fill="url(#fill)"
        d="M 14.57,1.96
           C 7.69,2.88 2.38,5.50 0.88,14.88
             2.56,24.50 5.94,26.88 14.39,28.00
             22.22,27.87 26.25,22.56 27.04,14.87
             26.44,6.94 21.31,2.56 14.57,1.96 Z
           M 2.00,15.04
           C 2.04,9.04 8.89,3.08 14.39,3.04
             19.89,3.01 26.04,9.00 26.00,14.61
             26.17,19.17 21.30,26.87 14.48,26.91
             8.17,26.96 2.00,21.00 2.00,15.04 Z
           M 17.57,20.87
           C 17.57,20.87 14.61,20.09 11.78,17.91
             8.96,15.74 9.04,14.57 8.87,13.09
             8.70,11.61 9.87,10.00 10.26,9.96
             10.65,9.91 11.48,9.74 12.26,10.43
             13.08,11.13 12.99,11.11 13.30,12.00
             13.12,13.41 12.14,14.11 12.14,14.11
             12.14,14.11 12.94,15.06 13.87,16.22
             14.92,17.25 14.89,17.11 16.09,18.09
             16.41,17.09 16.30,17.65 16.48,16.96
             16.65,16.26 17.09,16.48 17.78,16.74
             18.48,17.00 19.52,17.43 19.87,17.96
             20.22,18.48 20.39,19.57 20.26,19.83
             19.97,20.44 19.30,21.15 17.57,20.87 Z" />
</svg>
